<svg xmlns="http://www.w3.org/2000/svg" viewBox="-55 -35 500 533" width="500" height="533"><metadata><rdf:RDF xmlns:rdf="http://www.w3.org/1999/02/22-rdf-syntax-ns#" xmlns:dc="http://purl.org/dc/elements/1.1/"><rdf:Description><dc:creator>RealFaviconGenerator</dc:creator><dc:source>https://realfavicongenerator.net</dc:source></rdf:Description></rdf:RDF></metadata><clipPath id="a"><path d="M0 0h540v498H0z"></path></clipPath><g clip-path="url(#a)"><path fill="#fff" d="M-55-35h1600v533H-55z"></path><path fill="#2e3f66" d="M206.941 166.47c7.416 2.93 22.047 10.748 29.452 14.53a1765 1765 0 0 1 65.676 35.205 835 835 0 0 0-103.429 73.167c-3.683 3.219-7.631 6.418-11.401 9.562l-73.881-57.646a746 746 0 0 1 93.583-74.818m115.352-63.981c10.711 1.392 85.136 43.022 97.958 51.609a1518 1518 0 0 0-97.61 49.971c-1.424-.014-22.285-11.643-24.911-13.051a1657 1657 0 0 0-72.618-36.337c23.783-16.757 71.192-39.935 97.181-52.192M96.509 256.297c2.212 1.347 18.3 15.392 20.996 17.709a3385 3385 0 0 0 49.069 41.899 1267 1267 0 0 0-72.126 71.822l-7.617 8.11c-18.955-19.753-39.14-44.411-56.92-65.585 23.086-27.453 41.575-48.174 66.598-73.955m343.156 48.193c35.969-2.811 48.864 14.187 51.579"></path><path fill="#49629b" d="M125.751 128.951c5.17.858 57.629 27.382 65.028 30.972a729 729 0 0 0-81.585 65.502l-8.485 7.949a3823 3823 0 0 0-49.838-39.192 825 825 0 0 1 74.88-65.231m102.162-64.767c6.361 1.862 18.141 6.565 24.492 8.973a1649 1649 0 0 1 54.758 21.9 783 783 0 0 0-87.888 47.244l-8.631 5.372a4237 4237 0 0 0-67.735-30.509c29.075-20.683 54.04-35.635 85.004-52.98"></path><path fill="#6785cb" d="M152.045 36.74a2475 2475 0 0 0 61.672 23.165c-26.146 13.976-53.436 31.845-77.535 48.985l-5.386 3.982c-16.807-7.79-35.263-16.188-51.566-24.958a1015 1015 0 0 1 72.815-51.174"></path></g></svg>